<!-- <?xml version="1.0" standalone="no"?><svg xmlns="http://www.w3.org/2000/svg" viewBox="0 0 1440 320"><path fill="#3b5998" fill-opacity="1" d="M0,320L1440,288L1440,320L0,320Z"></path></svg> -->
<!-- <svg height="100%" width="100%" id="svg" viewBox="0 0 1440 400" xmlns="http://www.w3.org/2000/svg" class="transition duration-300 ease-in-out delay-150"><defs><linearGradient id="gradient"><stop offset="5%" stop-color="#3b5998ff"></stop><stop offset="95%" stop-color="#3b5980ff"></stop></linearGradient></defs><path d="M 0,400 C 0,400 0,200 0,200 C 205.71428571428572,257.14285714285717 822.8571428571429,228.57142857142858 1440,200 C 1440,200 1440,400 1440,400 Z" stroke="none" stroke-width="0" fill="url(#gradient)" class="transition-all duration-300 ease-in-out delay-150"></path></svg> -->
<!-- <svg height="100%" width="100%" id="svg" viewBox="0 0 1440 400" xmlns="http://www.w3.org/2000/svg" class="transition duration-300 ease-in-out delay-150"><defs><linearGradient id="gradient"><stop offset="5%" stop-color="#3b599888"></stop><stop offset="95%" stop-color="#0693e388"></stop></linearGradient></defs><path d="M 0,400 C 0,400 0,133 0,133 C 205.71428571428572,171 822.8571428571429,152 1440,133 C 1440,133 1440,400 1440,400 Z" stroke="none" stroke-width="0" fill="url(#gradient)" class="transition-all duration-300 ease-in-out delay-150"></path><defs><linearGradient id="gradient"><stop offset="5%" stop-color="#3b5998ff"></stop><stop offset="95%" stop-color="#0693e3ff"></stop></linearGradient></defs><path d="M 0,400 C 0,400 0,266 0,266 C 205.71428571428572,342 822.8571428571429,304 1440,266 C 1440,266 1440,400 1440,400 Z" stroke="none" stroke-width="0" fill="url(#gradient)" class="transition-all duration-300 ease-in-out delay-150"></path></svg> -->
<!-- <svg viewBox="0 0 1920 50" xmlns="http://www.w3.org/2000/svg" xmlns:xlink="http://www.w3.org/1999/xlink"><path fill="rgba(47, 73, 94, 1)" d="M 0 0 C 290.5 0 290.5 23 581 23 L 581 23 L 581 0 L 0 0 Z" stroke-width="0"></path> <path fill="rgba(47, 73, 94, 1)" d="M 580 23 C 1250 23 1250 0 1920 0 L 1920 0 L 1920 0 L 580 0 Z" stroke-width="0"></path> </svg> -->
<svg viewBox="0 0 1920 84" xmlns="http://www.w3.org/2000/svg" xmlns:xlink="http://www.w3.org/1999/xlink"><path fill="rgba(47, 73, 94, 1)" d="M 0 0 C 290.5 0 290.5 23 581 23 L 581 23 L 581 0 L 0 0 Z" stroke-width="0"></path> <path fill="rgba(47, 73, 94, 1)" d="M 580 23 C 1250 23 1250 62 1920 62 L 1920 62 L 1920 0 L 580 0 Z" stroke-width="0"></path> </svg>
