<?xml version="1.0" standalone="no"?>
<svg xmlns:xlink="http://www.w3.org/1999/xlink" id="wave" style="transform:rotate(0deg); transition: 0.3s" viewBox="0 0 1440 180" version="1.1" xmlns="http://www.w3.org/2000/svg"><defs><linearGradient id="sw-gradient-0" x1="0" x2="0" y1="1" y2="0"><stop stop-color="rgba(255, 255, 255, 0)" offset="0%"/><stop stop-color="rgba(255, 255, 255, 0)" offset="100%"/></linearGradient></defs><path style="transform:translate(0, 0px); opacity:1" fill="url(#sw-gradient-0)" d="M0,36L240,51C480,66,960,96,1440,96C1920,96,2400,66,2880,66C3360,66,3840,96,4320,93C4800,90,5280,54,5760,45C6240,36,6720,54,7200,57C7680,60,8160,48,8640,57C9120,66,9600,96,10080,96C10560,96,11040,66,11520,72C12000,78,12480,120,12960,123C13440,126,13920,90,14400,78C14880,66,15360,78,15840,78C16320,78,16800,66,17280,78C17760,90,18240,126,18720,123C19200,120,19680,78,20160,63C20640,48,21120,60,21600,75C22080,90,22560,108,23040,120C23520,132,24000,138,24480,132C24960,126,25440,108,25920,102C26400,96,26880,102,27360,108C27840,114,28320,120,28800,126C29280,132,29760,138,30240,141C30720,144,31200,144,31680,138C32160,132,32640,120,33120,114C33600,108,34080,108,34320,108L34560,108L34560,180L34320,180C34080,180,33600,180,33120,180C32640,180,32160,180,31680,180C31200,180,30720,180,30240,180C29760,180,29280,180,28800,180C28320,180,27840,180,27360,180C26880,180,26400,180,25920,180C25440,180,24960,180,24480,180C24000,180,23520,180,23040,180C22560,180,22080,180,21600,180C21120,180,20640,180,20160,180C19680,180,19200,180,18720,180C18240,180,17760,180,17280,180C16800,180,16320,180,15840,180C15360,180,14880,180,14400,180C13920,180,13440,180,12960,180C12480,180,12000,180,11520,180C11040,180,10560,180,10080,180C9600,180,9120,180,8640,180C8160,180,7680,180,7200,180C6720,180,6240,180,5760,180C5280,180,4800,180,4320,180C3840,180,3360,180,2880,180C2400,180,1920,180,1440,180C960,180,480,180,240,180L0,180Z"/><defs><linearGradient id="sw-gradient-1" x1="0" x2="0" y1="1" y2="0"><stop stop-color="rgba(59, 89, 152, 1)" offset="0%"/><stop stop-color="rgba(84.362, 154.985, 250.873, 1)" offset="100%"/></linearGradient></defs><path style="transform:translate(0, 50px); opacity:0.9" fill="url(#sw-gradient-1)" d="M0,108L240,99C480,90,960,72,1440,63C1920,54,2400,54,2880,48C3360,42,3840,30,4320,39C4800,48,5280,78,5760,90C6240,102,6720,96,7200,105C7680,114,8160,138,8640,126C9120,114,9600,66,10080,57C10560,48,11040,78,11520,78C12000,78,12480,48,12960,33C13440,18,13920,18,14400,27C14880,36,15360,54,15840,60C16320,66,16800,60,17280,63C17760,66,18240,78,18720,90C19200,102,19680,114,20160,99C20640,84,21120,42,21600,45C22080,48,22560,96,23040,102C23520,108,24000,72,24480,75C24960,78,25440,120,25920,123C26400,126,26880,90,27360,63C27840,36,28320,18,28800,21C29280,24,29760,48,30240,75C30720,102,31200,132,31680,144C32160,156,32640,150,33120,135C33600,120,34080,96,34320,84L34560,72L34560,180L34320,180C34080,180,33600,180,33120,180C32640,180,32160,180,31680,180C31200,180,30720,180,30240,180C29760,180,29280,180,28800,180C28320,180,27840,180,27360,180C26880,180,26400,180,25920,180C25440,180,24960,180,24480,180C24000,180,23520,180,23040,180C22560,180,22080,180,21600,180C21120,180,20640,180,20160,180C19680,180,19200,180,18720,180C18240,180,17760,180,17280,180C16800,180,16320,180,15840,180C15360,180,14880,180,14400,180C13920,180,13440,180,12960,180C12480,180,12000,180,11520,180C11040,180,10560,180,10080,180C9600,180,9120,180,8640,180C8160,180,7680,180,7200,180C6720,180,6240,180,5760,180C5280,180,4800,180,4320,180C3840,180,3360,180,2880,180C2400,180,1920,180,1440,180C960,180,480,180,240,180L0,180Z"/></svg>